<?xml version="1.0" ?><svg enable-background="new 0 0 500 500" id="Layer_1" version="1.1" viewBox="0 0 500 500" xml:space="preserve" xmlns="http://www.w3.org/2000/svg" xmlns:xlink="http://www.w3.org/1999/xlink"><g><g><path d="M386.9,428.4H113.1V72.6h183.6l90.1,90.1V428.4z M140.5,401.1h219V174l-74.1-74.1H140.5V401.1z"/></g><g><polygon points="373.2,182.1 277.4,182.1 277.4,86.2 304.8,86.2 304.8,154.7 373.2,154.7   "/></g><g><path d="M198.1,272v30h-16.6v-78.2h22.8c10.6,0,18.5,1.9,23.6,5.8c5.1,3.9,7.6,9.7,7.6,17.6c0,4.6-1.3,8.7-3.8,12.3    c-2.5,3.6-6.1,6.4-10.7,8.4c11.8,17.6,19.4,28.9,23,34.1h-18.4L207,272H198.1z M198.1,258.5h5.3c5.2,0,9.1-0.9,11.6-2.6    c2.5-1.8,3.7-4.5,3.7-8.2c0-3.7-1.3-6.3-3.8-7.9s-6.5-2.4-11.8-2.4h-5V258.5z"/><path d="M262,302h-16.3v-78.2h44.8v13.6H262v20.2h26.5v13.5H262V302z"/><path d="M297.5,302v-78.2h16.6V302H297.5z"/></g></g></svg>